<svg width="49" height="46" viewBox="0 0 49 46" fill="none" xmlns="http://www.w3.org/2000/svg">
<ellipse cx="24.5" cy="23" rx="24.5" ry="23" fill="#D9D9D9"/>
<path d="M16.8576 14.0533L16.2451 31.5508C16.1755 33.5394 16.8987 35.4742 18.2556 36.9297C19.6125 38.3851 21.492 39.242 23.4806 39.3118C24.4653 39.3463 25.4473 39.1865 26.3703 38.8416C27.2933 38.4966 28.1393 37.9732 28.86 37.3013C29.5808 36.6293 30.1621 35.822 30.5708 34.9254C30.9795 34.0288 31.2077 33.0605 31.2422 32.0757L31.9726 11.246C31.9957 10.5894 31.8892 9.93472 31.6592 9.31931C31.4292 8.7039 31.0803 8.13982 30.6323 7.65929C30.1843 7.17875 29.646 6.79117 29.0482 6.51868C28.4504 6.24619 27.8048 6.09413 27.1482 6.07118C26.4916 6.04812 25.8369 6.15461 25.2215 6.38459C24.6061 6.61457 24.042 6.96353 23.5615 7.41153C23.081 7.85953 22.6934 8.3978 22.4209 8.9956C22.1484 9.59341 21.9963 10.239 21.9734 10.8956L21.2441 31.7254C21.2326 32.0537 21.2858 32.381 21.4008 32.6887C21.5158 32.9964 21.6903 33.2785 21.9143 33.5187C22.1383 33.759 22.4074 33.9528 22.7063 34.089C23.0052 34.2253 23.328 34.3013 23.6563 34.3128C24.3191 34.3359 24.964 34.0949 25.4491 33.6426C25.9342 33.1903 26.2198 32.5639 26.2431 31.9011L26.8562 14.4031" stroke="#2136F8" stroke-width="4" stroke-linecap="round" stroke-linejoin="round"/>
</svg>
