<svg width="49" height="46" viewBox="0 0 49 46" fill="none" xmlns="http://www.w3.org/2000/svg">
<ellipse cx="24.5" cy="23" rx="24.5" ry="23" fill="#0C74D3"/>
<path d="M31 22V25C31 26.8565 30.2625 28.637 28.9497 29.9497C27.637 31.2625 25.8565 32 24 32C22.1435 32 20.363 31.2625 19.0503 29.9497C17.7375 28.637 17 26.8565 17 25V22H15V25C15.0011 27.2131 15.8175 29.3482 17.2932 30.9973C18.769 32.6465 20.8006 33.6941 23 33.94V36H19V38H29V36H25V33.94C27.1994 33.6941 29.231 32.6465 30.7068 30.9973C32.1825 29.3482 32.9989 27.2131 33 25V22H31Z" fill="white"/>
<path d="M24 30C25.3261 30 26.5979 29.4732 27.5355 28.5355C28.4732 27.5979 29 26.3261 29 25V15C29 13.6739 28.4732 12.4021 27.5355 11.4645C26.5979 10.5268 25.3261 10 24 10C22.6739 10 21.4021 10.5268 20.4645 11.4645C19.5268 12.4021 19 13.6739 19 15V25C19 26.3261 19.5268 27.5979 20.4645 28.5355C21.4021 29.4732 22.6739 30 24 30Z" fill="white"/>
</svg>
