<svg width="66" height="66" viewBox="0 0 66 66" fill="none" xmlns="http://www.w3.org/2000/svg">
<circle cx="33" cy="33" r="33" fill="#0C74D3"/>
<g clip-path="url(#clip0_118_921)">
<path d="M43.1543 31.9188H41.462C41.462 33.865 41.0389 35.703 40.2773 37.3248L41.5466 38.9466C42.562 36.7842 43.0697 34.4056 43.1543 31.9188Z" fill="white"/>
<path d="M38.9237 31.9188V23.2692C38.9237 19.0526 36.216 15.7009 32.916 15.809C30.4622 15.809 28.1776 17.8633 27.416 20.8906L38.416 34.9462C38.7545 33.9731 38.9237 32.8919 38.9237 31.9188Z" fill="white"/>
<path d="M39.0928 42.2983L44.9313 49.7586L46.1159 48.2449L21.1543 16.3496L19.9697 17.8633L27.0774 26.9453V31.9188C27.0774 36.1355 29.7005 39.4872 33.0005 39.4872C34.1005 39.4872 35.1159 39.1628 36.0466 38.406L37.9082 40.7846C36.4697 42.0821 34.7774 42.7308 33.0005 42.7308C28.4313 42.947 24.7082 38.2979 24.539 32.5675V31.9188H22.8466C22.9313 38.6222 26.9082 44.2445 32.1543 44.8932V48.1368H29.6159C29.1082 48.1368 28.7697 48.5692 28.7697 49.218C28.7697 49.8667 29.1082 50.2992 29.6159 50.2992H36.3851C36.8928 50.2992 37.2313 49.8667 37.2313 49.218C37.2313 48.5692 36.8928 48.1368 36.3851 48.1368H33.8466V44.8932C35.7082 44.6769 37.5697 43.812 39.0928 42.2983Z" fill="white"/>
</g>
<defs>
<clipPath id="clip0_118_921">
<rect width="30.4615" height="38.9231" fill="white" transform="translate(17.7695 13.5385)"/>
</clipPath>
</defs>
</svg>
